<svg width="240" height="70" viewBox="0 0 240 70" fill="none" xmlns="http://www.w3.org/2000/svg">
<path d="M32.432 27.52C32.7392 27.328 33.1808 27.1744 33.7568 27.0592C34.3328 26.9056 34.928 26.8288 35.5424 26.8288C36.5024 26.8288 37.3088 26.9824 37.9616 27.2896C38.6528 27.5968 39.0752 28.0384 39.2288 28.6144C40.112 31.2256 40.8992 33.6448 41.5904 35.872C42.2816 38.0608 42.9536 40.192 43.6064 42.2656C44.2592 44.3008 44.912 46.432 45.5648 48.6592H45.7952C46.448 45.28 47.0816 42.016 47.696 38.8672C48.3104 35.68 48.8864 32.4928 49.424 29.3056C50 26.08 50.5376 22.6816 51.0368 19.1104C51.8048 18.7264 52.6688 18.5344 53.6288 18.5344C54.512 18.5344 55.2416 18.7456 55.8176 19.168C56.3936 19.552 56.6816 20.1664 56.6816 21.0112C56.6816 21.7792 56.5856 22.912 56.3936 24.4096C56.2016 25.8688 55.9328 27.5968 55.5872 29.5936C55.2416 31.552 54.8384 33.6256 54.3776 35.8144C53.9168 37.9648 53.4368 40.1152 52.9376 42.2656C52.4384 44.416 51.92 46.432 51.3824 48.3136C50.8832 50.1568 50.4032 51.7312 49.9424 53.0368C49.52 53.3056 48.944 53.5552 48.2144 53.7856C47.4848 53.9776 46.6976 54.0736 45.8528 54.0736C44.7776 54.0736 43.856 53.92 43.088 53.6128C42.3584 53.2672 41.8784 52.8256 41.648 52.288C41.1872 51.0208 40.6112 49.408 39.92 47.4496C39.2672 45.4528 38.576 43.2832 37.8464 40.9408C37.1168 38.56 36.4064 36.1984 35.7152 33.856C35.1008 36.16 34.4288 38.5408 33.6992 40.9984C32.9696 43.456 32.2592 45.7408 31.568 47.8528C30.8768 49.9648 30.2624 51.6928 29.7248 53.0368C29.3792 53.3056 28.8608 53.5552 28.1696 53.7856C27.4784 53.9776 26.6912 54.0736 25.808 54.0736C24.7712 54.0736 23.8496 53.9008 23.0432 53.5552C22.2752 53.2096 21.776 52.7872 21.5456 52.288C21.1616 51.328 20.7008 49.9264 20.1632 48.0832C19.6256 46.2016 19.0496 44.0512 18.4352 41.632C17.8592 39.1744 17.2832 36.64 16.7072 34.0288C16.1312 31.4176 15.5936 28.8832 15.0944 26.4256C14.6336 23.968 14.2688 21.7792 14 19.8592C14.3072 19.5136 14.7488 19.2064 15.3248 18.9376C15.9392 18.6688 16.592 18.5344 17.2832 18.5344C18.1664 18.5344 18.8576 18.7456 19.3568 19.168C19.8944 19.552 20.24 20.224 20.3936 21.184C20.9312 23.9488 21.4112 26.5216 21.8336 28.9024C22.2944 31.2448 22.736 33.4912 23.1584 35.6416C23.5808 37.7536 24.0032 39.8848 24.4256 42.0352C24.8864 44.1472 25.3664 46.3552 25.8656 48.6592H26.1536C26.6144 46.9696 27.0752 45.376 27.536 43.8784C27.9968 42.3424 28.4576 40.7872 28.9184 39.2128C29.4176 37.6384 29.936 35.9104 30.4736 34.0288C31.0496 32.1472 31.7024 29.9776 32.432 27.52Z" fill="#116EEA"/>
<path d="M88.2806 40.3648C88.2806 43.2448 87.7238 45.76 86.6102 47.9104C85.4966 50.0608 83.9222 51.7312 81.887 52.9216C79.8518 54.0736 77.4518 54.6496 74.687 54.6496C71.9222 54.6496 69.5222 54.0736 67.487 52.9216C65.4518 51.7312 63.8774 50.08 62.7638 47.968C61.6502 45.8176 61.0934 43.2832 61.0934 40.3648C61.0934 37.4464 61.6502 34.9312 62.7638 32.8192C63.9158 30.6688 65.5094 29.0176 67.5446 27.8656C69.6182 26.6752 71.999 26.08 74.687 26.08C77.4134 26.08 79.7942 26.6752 81.8294 27.8656C83.8646 29.0176 85.439 30.6688 86.5526 32.8192C87.7046 34.9312 88.2806 37.4464 88.2806 40.3648ZM74.687 30.8608C72.383 30.8608 70.5398 31.7056 69.1574 33.3952C67.8134 35.0848 67.1414 37.408 67.1414 40.3648C67.1414 43.36 67.7942 45.7024 69.0998 47.392C70.4438 49.0432 72.3062 49.8688 74.687 49.8688C77.0678 49.8688 78.911 49.024 80.2166 47.3344C81.5606 45.6448 82.2326 43.3216 82.2326 40.3648C82.2326 37.408 81.5606 35.0848 80.2166 33.3952C78.8726 31.7056 77.0294 30.8608 74.687 30.8608Z" fill="#116EEA"/>
<path d="M100.696 32.6464V41.1136H94.7633V32.5312C94.7633 31.6096 94.9553 30.8608 95.3393 30.2848C95.7617 29.6704 96.3761 29.0944 97.1825 28.5568C98.2577 27.8656 99.6593 27.2896 101.387 26.8288C103.154 26.368 105.074 26.1376 107.147 26.1376C110.488 26.1376 112.159 27.0784 112.159 28.96C112.159 29.4208 112.082 29.8432 111.928 30.2272C111.813 30.6112 111.659 30.9568 111.467 31.264C111.083 31.1872 110.584 31.1104 109.97 31.0336C109.394 30.9568 108.799 30.9184 108.184 30.9184C106.61 30.9184 105.17 31.0912 103.864 31.4368C102.597 31.744 101.541 32.1472 100.696 32.6464ZM94.7633 38.6368L100.696 39.1552V53.728C100.427 53.8048 100.043 53.9008 99.5441 54.016C99.0833 54.1312 98.5649 54.1888 97.9889 54.1888C96.9137 54.1888 96.1073 53.9776 95.5697 53.5552C95.0321 53.1328 94.7633 52.4416 94.7633 51.4816V38.6368Z" fill="#116EEA"/>
<path d="M134.562 48.544V29.824H140.495V49.0048C140.495 49.8112 140.322 50.464 139.977 50.9632C139.631 51.4624 139.074 51.9424 138.306 52.4032C137.461 52.9408 136.29 53.44 134.793 53.9008C133.295 54.4 131.567 54.6496 129.609 54.6496C126.69 54.6496 124.137 54.1504 121.948 53.152C119.797 52.1536 118.108 50.6176 116.879 48.544C115.689 46.432 115.093 43.744 115.093 40.48C115.093 37.1392 115.689 34.4128 116.879 32.3008C118.069 30.1888 119.701 28.6336 121.775 27.6352C123.849 26.5984 126.114 26.08 128.572 26.08C130.031 26.08 131.394 26.272 132.661 26.656C133.929 27.04 134.927 27.52 135.657 28.096V33.28C134.965 32.6272 134.082 32.0704 133.007 31.6096C131.932 31.1104 130.684 30.8608 129.263 30.8608C127.765 30.8608 126.383 31.1872 125.116 31.84C123.887 32.4544 122.908 33.472 122.178 34.8928C121.449 36.3136 121.084 38.1952 121.084 40.5376C121.084 43.7632 121.852 46.1248 123.388 47.6224C124.924 49.12 126.978 49.8688 129.551 49.8688C130.741 49.8688 131.721 49.7344 132.489 49.4656C133.295 49.1968 133.986 48.8896 134.562 48.544ZM140.495 31.1488H134.562V16.4608C134.831 16.384 135.215 16.288 135.714 16.1728C136.213 16.0576 136.732 16 137.269 16C138.383 16 139.189 16.2112 139.689 16.6336C140.226 17.0176 140.495 17.7088 140.495 18.7072V31.1488Z" fill="#116EEA"/>
<path d="M159.31 49.696C161.69 49.696 163.476 49.1776 164.666 48.1408C165.857 47.104 166.452 45.7984 166.452 44.224C166.452 42.8416 165.991 41.7088 165.07 40.8256C164.148 39.9424 162.727 39.2128 160.807 38.6368L156.43 37.312C154.663 36.7744 153.127 36.1024 151.822 35.296C150.516 34.4896 149.498 33.472 148.769 32.2432C148.039 31.0144 147.674 29.536 147.674 27.808C147.674 24.7744 148.788 22.3936 151.015 20.6656C153.281 18.8992 156.314 18.016 160.116 18.016C162.228 18.016 164.11 18.2464 165.761 18.7072C167.45 19.1296 168.756 19.7056 169.678 20.4352C170.638 21.1648 171.117 21.9904 171.117 22.912C171.117 23.5264 170.964 24.0832 170.657 24.5824C170.35 25.0432 169.946 25.4272 169.447 25.7344C168.526 25.0048 167.278 24.3712 165.703 23.8336C164.129 23.296 162.401 23.0272 160.519 23.0272C158.446 23.0272 156.814 23.4688 155.623 24.352C154.433 25.1968 153.838 26.3488 153.838 27.808C153.838 28.96 154.26 29.9008 155.105 30.6304C155.95 31.3216 157.274 31.936 159.079 32.4736L162.478 33.5104C165.665 34.432 168.142 35.7376 169.908 37.4272C171.713 39.0784 172.615 41.344 172.615 44.224C172.615 47.3344 171.463 49.8496 169.159 51.7696C166.855 53.6896 163.591 54.6496 159.367 54.6496C157.025 54.6496 154.951 54.3808 153.146 53.8432C151.38 53.344 149.998 52.6912 148.999 51.8848C148.001 51.04 147.502 50.1376 147.502 49.1776C147.502 48.4096 147.732 47.776 148.193 47.2768C148.654 46.7392 149.172 46.336 149.748 46.0672C150.708 46.912 151.975 47.7376 153.55 48.544C155.162 49.312 157.082 49.696 159.31 49.696Z" fill="#116EEA"/>
<path d="M181.728 43.648L181.44 39.328L197.798 37.024C197.683 35.2192 197.049 33.7216 195.897 32.5312C194.745 31.3024 193.113 30.688 191.001 30.688C188.851 30.688 187.065 31.456 185.644 32.992C184.224 34.528 183.494 36.7168 183.456 39.5584L183.571 41.7472C183.878 44.4736 184.857 46.528 186.508 47.9104C188.16 49.2544 190.329 49.9264 193.017 49.9264C194.63 49.9264 196.108 49.6768 197.452 49.1776C198.796 48.6784 199.872 48.1408 200.678 47.5648C201.139 47.8336 201.504 48.1984 201.772 48.6592C202.08 49.12 202.233 49.6192 202.233 50.1568C202.233 51.0016 201.811 51.7696 200.966 52.4608C200.121 53.152 198.969 53.6896 197.51 54.0736C196.089 54.4576 194.476 54.6496 192.672 54.6496C189.715 54.6496 187.123 54.112 184.896 53.0368C182.668 51.9232 180.94 50.2912 179.712 48.1408C178.483 45.952 177.868 43.2832 177.868 40.1344C177.868 37.8688 178.195 35.872 178.848 34.144C179.539 32.3776 180.48 30.8992 181.67 29.7088C182.86 28.5184 184.262 27.616 185.875 27.0016C187.488 26.3872 189.216 26.08 191.059 26.08C193.478 26.08 195.609 26.5984 197.452 27.6352C199.334 28.6336 200.793 30.0352 201.83 31.84C202.867 33.6448 203.385 35.6992 203.385 38.0032C203.385 38.9632 203.155 39.6736 202.694 40.1344C202.233 40.5568 201.58 40.8256 200.736 40.9408L181.728 43.648Z" fill="#116EEA"/>
<path d="M209.741 38.6368H215.616V46.0096C215.616 47.392 216.019 48.3712 216.826 48.9472C217.632 49.5232 218.765 49.8112 220.224 49.8112C220.839 49.8112 221.53 49.7152 222.298 49.5232C223.066 49.3312 223.699 49.1008 224.199 48.832C224.467 49.1008 224.698 49.4464 224.89 49.8688C225.12 50.2528 225.235 50.6944 225.235 51.1936C225.235 52.192 224.717 53.0176 223.68 53.6704C222.682 54.2848 221.165 54.592 219.13 54.592C216.288 54.592 214.003 53.9584 212.275 52.6912C210.586 51.424 209.741 49.312 209.741 46.3552V38.6368ZM213.082 32.1856V27.4624H224.544C224.698 27.6928 224.832 28.0192 224.947 28.4416C225.101 28.864 225.178 29.3056 225.178 29.7664C225.178 30.5728 224.986 31.1872 224.602 31.6096C224.256 31.9936 223.757 32.1856 223.104 32.1856H213.082ZM215.616 40.2496H209.741V19.456C209.971 19.3792 210.336 19.2832 210.835 19.168C211.335 19.0528 211.872 18.9952 212.448 18.9952C213.523 18.9952 214.311 19.2064 214.81 19.6288C215.347 20.0512 215.616 20.7424 215.616 21.7024V40.2496Z" fill="#116EEA"/>
</svg>
