<svg width="240" height="240" viewBox="0 0 240 240" fill="none" xmlns="http://www.w3.org/2000/svg">
<path d="M173.132 164.254C166.056 178.405 145.861 178.405 138.786 164.254L132.409 151.502L146.894 122.533L146.918 122.485L172.346 71.6287C178.463 59.3946 169.567 45 155.889 45L201.692 45C215.965 45 225.248 60.0204 218.865 72.7865L173.132 164.254Z" fill="#116EEA"/>
<path d="M76.3855 183.454C83.4612 197.606 103.656 197.606 110.732 183.454L166.065 72.7868C172.448 60.0207 163.165 45.0003 148.892 45.0003L38.2248 45.0003C23.9518 45.0003 14.6687 60.0208 21.0518 72.7869L76.3855 183.454Z" fill="#88B7F6"/>
</svg>
