<svg width="240" height="240" viewBox="0 0 240 240" fill="none" xmlns="http://www.w3.org/2000/svg">
<path d="M32.432 196.52C32.7392 196.328 33.1808 196.174 33.7568 196.059C34.3328 195.906 34.928 195.829 35.5424 195.829C36.5024 195.829 37.3088 195.982 37.9616 196.29C38.6528 196.597 39.0752 197.038 39.2288 197.614C40.112 200.226 40.8992 202.645 41.5904 204.872C42.2816 207.061 42.9536 209.192 43.6064 211.266C44.2592 213.301 44.912 215.432 45.5648 217.659H45.7952C46.448 214.28 47.0816 211.016 47.696 207.867C48.3104 204.68 48.8864 201.493 49.424 198.306C50 195.08 50.5376 191.682 51.0368 188.11C51.8048 187.726 52.6688 187.534 53.6288 187.534C54.512 187.534 55.2416 187.746 55.8176 188.168C56.3936 188.552 56.6816 189.166 56.6816 190.011C56.6816 190.779 56.5856 191.912 56.3936 193.41C56.2016 194.869 55.9328 196.597 55.5872 198.594C55.2416 200.552 54.8384 202.626 54.3776 204.814C53.9168 206.965 53.4368 209.115 52.9376 211.266C52.4384 213.416 51.92 215.432 51.3824 217.314C50.8832 219.157 50.4032 220.731 49.9424 222.037C49.52 222.306 48.944 222.555 48.2144 222.786C47.4848 222.978 46.6976 223.074 45.8528 223.074C44.7776 223.074 43.856 222.92 43.088 222.613C42.3584 222.267 41.8784 221.826 41.648 221.288C41.1872 220.021 40.6112 218.408 39.92 216.45C39.2672 214.453 38.576 212.283 37.8464 209.941C37.1168 207.56 36.4064 205.198 35.7152 202.856C35.1008 205.16 34.4288 207.541 33.6992 209.998C32.9696 212.456 32.2592 214.741 31.568 216.853C30.8768 218.965 30.2624 220.693 29.7248 222.037C29.3792 222.306 28.8608 222.555 28.1696 222.786C27.4784 222.978 26.6912 223.074 25.808 223.074C24.7712 223.074 23.8496 222.901 23.0432 222.555C22.2752 222.21 21.776 221.787 21.5456 221.288C21.1616 220.328 20.7008 218.926 20.1632 217.083C19.6256 215.202 19.0496 213.051 18.4352 210.632C17.8592 208.174 17.2832 205.64 16.7072 203.029C16.1312 200.418 15.5936 197.883 15.0944 195.426C14.6336 192.968 14.2688 190.779 14 188.859C14.3072 188.514 14.7488 188.206 15.3248 187.938C15.9392 187.669 16.592 187.534 17.2832 187.534C18.1664 187.534 18.8576 187.746 19.3568 188.168C19.8944 188.552 20.24 189.224 20.3936 190.184C20.9312 192.949 21.4112 195.522 21.8336 197.902C22.2944 200.245 22.736 202.491 23.1584 204.642C23.5808 206.754 24.0032 208.885 24.4256 211.035C24.8864 213.147 25.3664 215.355 25.8656 217.659H26.1536C26.6144 215.97 27.0752 214.376 27.536 212.878C27.9968 211.342 28.4576 209.787 28.9184 208.213C29.4176 206.638 29.936 204.91 30.4736 203.029C31.0496 201.147 31.7024 198.978 32.432 196.52Z" fill="#116EEA"/>
<path d="M88.2806 209.365C88.2806 212.245 87.7238 214.76 86.6102 216.91C85.4966 219.061 83.9222 220.731 81.887 221.922C79.8518 223.074 77.4518 223.65 74.687 223.65C71.9222 223.65 69.5222 223.074 67.487 221.922C65.4518 220.731 63.8774 219.08 62.7638 216.968C61.6502 214.818 61.0934 212.283 61.0934 209.365C61.0934 206.446 61.6502 203.931 62.7638 201.819C63.9158 199.669 65.5094 198.018 67.5446 196.866C69.6182 195.675 71.999 195.08 74.687 195.08C77.4134 195.08 79.7942 195.675 81.8294 196.866C83.8646 198.018 85.439 199.669 86.5526 201.819C87.7046 203.931 88.2806 206.446 88.2806 209.365ZM74.687 199.861C72.383 199.861 70.5398 200.706 69.1574 202.395C67.8134 204.085 67.1414 206.408 67.1414 209.365C67.1414 212.36 67.7942 214.702 69.0998 216.392C70.4438 218.043 72.3062 218.869 74.687 218.869C77.0678 218.869 78.911 218.024 80.2166 216.334C81.5606 214.645 82.2326 212.322 82.2326 209.365C82.2326 206.408 81.5606 204.085 80.2166 202.395C78.8726 200.706 77.0294 199.861 74.687 199.861Z" fill="#116EEA"/>
<path d="M100.696 201.646V210.114H94.7633V201.531C94.7633 200.61 94.9553 199.861 95.3393 199.285C95.7617 198.67 96.3761 198.094 97.1825 197.557C98.2577 196.866 99.6593 196.29 101.387 195.829C103.154 195.368 105.074 195.138 107.147 195.138C110.488 195.138 112.159 196.078 112.159 197.96C112.159 198.421 112.082 198.843 111.928 199.227C111.813 199.611 111.659 199.957 111.467 200.264C111.083 200.187 110.584 200.11 109.97 200.034C109.394 199.957 108.799 199.918 108.184 199.918C106.61 199.918 105.17 200.091 103.864 200.437C102.597 200.744 101.541 201.147 100.696 201.646ZM94.7633 207.637L100.696 208.155V222.728C100.427 222.805 100.043 222.901 99.5441 223.016C99.0833 223.131 98.5649 223.189 97.9889 223.189C96.9137 223.189 96.1073 222.978 95.5697 222.555C95.0321 222.133 94.7633 221.442 94.7633 220.482V207.637Z" fill="#116EEA"/>
<path d="M134.562 217.544V198.824H140.495V218.005C140.495 218.811 140.322 219.464 139.977 219.963C139.631 220.462 139.074 220.942 138.306 221.403C137.461 221.941 136.29 222.44 134.793 222.901C133.295 223.4 131.567 223.65 129.609 223.65C126.69 223.65 124.137 223.15 121.948 222.152C119.797 221.154 118.108 219.618 116.879 217.544C115.689 215.432 115.093 212.744 115.093 209.48C115.093 206.139 115.689 203.413 116.879 201.301C118.069 199.189 119.701 197.634 121.775 196.635C123.849 195.598 126.114 195.08 128.572 195.08C130.031 195.08 131.394 195.272 132.661 195.656C133.929 196.04 134.927 196.52 135.657 197.096V202.28C134.965 201.627 134.082 201.07 133.007 200.61C131.932 200.11 130.684 199.861 129.263 199.861C127.765 199.861 126.383 200.187 125.116 200.84C123.887 201.454 122.908 202.472 122.178 203.893C121.449 205.314 121.084 207.195 121.084 209.538C121.084 212.763 121.852 215.125 123.388 216.622C124.924 218.12 126.978 218.869 129.551 218.869C130.741 218.869 131.721 218.734 132.489 218.466C133.295 218.197 133.986 217.89 134.562 217.544ZM140.495 200.149H134.562V185.461C134.831 185.384 135.215 185.288 135.714 185.173C136.213 185.058 136.732 185 137.269 185C138.383 185 139.189 185.211 139.689 185.634C140.226 186.018 140.495 186.709 140.495 187.707V200.149Z" fill="#116EEA"/>
<path d="M159.31 218.696C161.69 218.696 163.476 218.178 164.666 217.141C165.857 216.104 166.452 214.798 166.452 213.224C166.452 211.842 165.991 210.709 165.07 209.826C164.148 208.942 162.727 208.213 160.807 207.637L156.43 206.312C154.663 205.774 153.127 205.102 151.822 204.296C150.516 203.49 149.498 202.472 148.769 201.243C148.039 200.014 147.674 198.536 147.674 196.808C147.674 193.774 148.788 191.394 151.015 189.666C153.281 187.899 156.314 187.016 160.116 187.016C162.228 187.016 164.11 187.246 165.761 187.707C167.45 188.13 168.756 188.706 169.678 189.435C170.637 190.165 171.117 190.99 171.117 191.912C171.117 192.526 170.964 193.083 170.657 193.582C170.35 194.043 169.946 194.427 169.447 194.734C168.525 194.005 167.278 193.371 165.703 192.834C164.129 192.296 162.401 192.027 160.519 192.027C158.446 192.027 156.814 192.469 155.623 193.352C154.433 194.197 153.838 195.349 153.838 196.808C153.838 197.96 154.26 198.901 155.105 199.63C155.95 200.322 157.274 200.936 159.079 201.474L162.478 202.51C165.665 203.432 168.142 204.738 169.908 206.427C171.713 208.078 172.615 210.344 172.615 213.224C172.615 216.334 171.463 218.85 169.159 220.77C166.855 222.69 163.591 223.65 159.367 223.65C157.025 223.65 154.951 223.381 153.146 222.843C151.38 222.344 149.998 221.691 148.999 220.885C148.001 220.04 147.502 219.138 147.502 218.178C147.502 217.41 147.732 216.776 148.193 216.277C148.654 215.739 149.172 215.336 149.748 215.067C150.708 215.912 151.975 216.738 153.55 217.544C155.162 218.312 157.082 218.696 159.31 218.696Z" fill="#116EEA"/>
<path d="M181.728 212.648L181.44 208.328L197.798 206.024C197.683 204.219 197.049 202.722 195.897 201.531C194.745 200.302 193.113 199.688 191.001 199.688C188.851 199.688 187.065 200.456 185.644 201.992C184.224 203.528 183.494 205.717 183.456 208.558L183.571 210.747C183.878 213.474 184.857 215.528 186.508 216.91C188.16 218.254 190.329 218.926 193.017 218.926C194.63 218.926 196.108 218.677 197.452 218.178C198.796 217.678 199.872 217.141 200.678 216.565C201.139 216.834 201.504 217.198 201.772 217.659C202.08 218.12 202.233 218.619 202.233 219.157C202.233 220.002 201.811 220.77 200.966 221.461C200.121 222.152 198.969 222.69 197.51 223.074C196.089 223.458 194.476 223.65 192.672 223.65C189.715 223.65 187.123 223.112 184.896 222.037C182.668 220.923 180.94 219.291 179.712 217.141C178.483 214.952 177.868 212.283 177.868 209.134C177.868 206.869 178.195 204.872 178.848 203.144C179.539 201.378 180.48 199.899 181.67 198.709C182.86 197.518 184.262 196.616 185.875 196.002C187.488 195.387 189.216 195.08 191.059 195.08C193.478 195.08 195.609 195.598 197.452 196.635C199.334 197.634 200.793 199.035 201.83 200.84C202.867 202.645 203.385 204.699 203.385 207.003C203.385 207.963 203.155 208.674 202.694 209.134C202.233 209.557 201.58 209.826 200.736 209.941L181.728 212.648Z" fill="#116EEA"/>
<path d="M209.741 207.637H215.616V215.01C215.616 216.392 216.019 217.371 216.826 217.947C217.632 218.523 218.765 218.811 220.224 218.811C220.839 218.811 221.53 218.715 222.298 218.523C223.066 218.331 223.699 218.101 224.199 217.832C224.467 218.101 224.698 218.446 224.89 218.869C225.12 219.253 225.235 219.694 225.235 220.194C225.235 221.192 224.717 222.018 223.68 222.67C222.682 223.285 221.165 223.592 219.13 223.592C216.288 223.592 214.003 222.958 212.275 221.691C210.586 220.424 209.741 218.312 209.741 215.355V207.637ZM213.082 201.186V196.462H224.544C224.698 196.693 224.832 197.019 224.947 197.442C225.101 197.864 225.178 198.306 225.178 198.766C225.178 199.573 224.986 200.187 224.602 200.61C224.256 200.994 223.757 201.186 223.104 201.186H213.082ZM215.616 209.25H209.741V188.456C209.971 188.379 210.336 188.283 210.835 188.168C211.335 188.053 211.872 187.995 212.448 187.995C213.523 187.995 214.311 188.206 214.81 188.629C215.347 189.051 215.616 189.742 215.616 190.702V209.25Z" fill="#116EEA"/>
<path d="M173.132 135.254C166.056 149.405 145.861 149.405 138.786 135.254L132.409 122.502L146.894 93.5325L146.918 93.4851L172.346 42.6287C178.463 30.3946 169.567 16 155.889 16L201.692 16C215.965 16 225.248 31.0204 218.865 43.7865L173.132 135.254Z" fill="#116EEA"/>
<path d="M76.3855 154.454C83.4612 168.606 103.656 168.606 110.732 154.454L166.065 43.7868C172.448 31.0207 163.165 16.0003 148.892 16.0003L38.2248 16.0003C23.9518 16.0003 14.6687 31.0208 21.0518 43.7869L76.3855 154.454Z" fill="#88B7F6"/>
</svg>
