<svg width="808" height="240" viewBox="0 0 808 240" fill="none" xmlns="http://www.w3.org/2000/svg">
<path d="M282.646 101.806C283.44 101.309 284.582 100.912 286.071 100.614C287.56 100.217 289.098 100.018 290.686 100.018C293.167 100.018 295.252 100.415 296.939 101.21C298.726 102.005 299.818 103.148 300.215 104.638C302.498 111.394 304.532 117.653 306.319 123.416C308.106 129.079 309.843 134.593 311.53 139.958C313.217 145.224 314.905 150.738 316.592 156.501H317.187C318.875 147.758 320.513 139.312 322.101 131.165C323.689 122.919 325.178 114.673 326.567 106.426C328.056 98.0805 329.446 89.2876 330.736 80.0477C332.721 79.0541 334.954 78.5574 337.436 78.5574C339.719 78.5574 341.604 79.1038 343.093 80.1967C344.582 81.1903 345.327 82.7799 345.327 84.9657C345.327 86.9528 345.078 89.8838 344.582 93.7586C344.086 97.534 343.391 102.005 342.498 107.171C341.604 112.238 340.562 117.604 339.371 123.267C338.18 128.831 336.939 134.394 335.649 139.958C334.359 145.522 333.019 150.738 331.629 155.607C330.339 160.376 329.098 164.449 327.907 167.827C326.815 168.523 325.326 169.168 323.441 169.765C321.555 170.261 319.52 170.51 317.336 170.51C314.557 170.51 312.175 170.112 310.19 169.317C308.304 168.423 307.063 167.281 306.468 165.89C305.277 162.611 303.788 158.438 302.001 153.371C300.314 148.205 298.527 142.591 296.641 136.531C294.756 130.371 292.919 124.26 291.133 118.2C289.545 124.161 287.808 130.321 285.922 136.68C284.036 143.038 282.2 148.95 280.413 154.414C278.626 159.879 277.038 164.35 275.649 167.827C274.755 168.523 273.416 169.168 271.629 169.765C269.842 170.261 267.808 170.51 265.525 170.51C262.845 170.51 260.463 170.063 258.378 169.168C256.393 168.274 255.103 167.181 254.507 165.89C253.515 163.406 252.324 159.779 250.934 155.01C249.544 150.142 248.056 144.578 246.467 138.319C244.979 131.96 243.49 125.403 242.001 118.647C240.512 111.891 239.123 105.333 237.832 98.9747C236.641 92.616 235.698 86.9528 235.003 81.9851C235.797 81.0909 236.939 80.2961 238.428 79.6006C240.016 78.9051 241.703 78.5574 243.49 78.5574C245.773 78.5574 247.559 79.1038 248.85 80.1967C250.239 81.1903 251.133 82.929 251.53 85.4128C252.919 92.5663 254.16 99.223 255.252 105.383C256.443 111.444 257.584 117.256 258.676 122.82C259.768 128.284 260.86 133.798 261.951 139.362C263.143 144.827 264.383 150.539 265.674 156.501H266.418C267.609 152.129 268.8 148.006 269.991 144.131C271.182 140.157 272.373 136.133 273.564 132.06C274.855 127.986 276.195 123.515 277.584 118.647C279.073 113.778 280.76 108.165 282.646 101.806Z" fill="#116EEA"/>
<path d="M427.003 135.04C427.003 142.492 425.564 148.999 422.686 154.563C419.807 160.127 415.738 164.449 410.477 167.529C405.217 170.51 399.013 172 391.867 172C384.72 172 378.517 170.51 373.256 167.529C367.996 164.449 363.926 160.177 361.048 154.712C358.169 149.149 356.73 142.591 356.73 135.04C356.73 127.489 358.169 120.982 361.048 115.517C364.025 109.953 368.145 105.681 373.405 102.7C378.765 99.6205 384.919 98.0805 391.867 98.0805C398.914 98.0805 405.068 99.6205 410.328 102.7C415.589 105.681 419.659 109.953 422.537 115.517C425.515 120.982 427.003 127.489 427.003 135.04ZM391.867 110.45C385.911 110.45 381.147 112.636 377.574 117.007C374.1 121.379 372.363 127.39 372.363 135.04C372.363 142.79 374.05 148.85 377.425 153.222C380.899 157.494 385.713 159.63 391.867 159.63C398.021 159.63 402.785 157.445 406.16 153.073C409.634 148.701 411.371 142.691 411.371 135.04C411.371 127.39 409.634 121.379 406.16 117.007C402.686 112.636 397.921 110.45 391.867 110.45Z" fill="#116EEA"/>
<path d="M459.095 115.07V136.978H443.76V114.772C443.76 112.387 444.256 110.45 445.249 108.96C446.341 107.37 447.929 105.88 450.013 104.489C452.792 102.7 456.415 101.21 460.882 100.018C465.447 98.8256 470.41 98.2295 475.77 98.2295C484.405 98.2295 488.723 100.664 488.723 105.532C488.723 106.724 488.524 107.817 488.127 108.811C487.83 109.804 487.433 110.698 486.936 111.493C485.944 111.295 484.653 111.096 483.065 110.897C481.576 110.698 480.038 110.599 478.45 110.599C474.38 110.599 470.658 111.046 467.284 111.94C464.008 112.735 461.279 113.778 459.095 115.07ZM443.76 130.569L459.095 131.911V169.615C458.4 169.814 457.408 170.063 456.117 170.361C454.926 170.659 453.586 170.808 452.097 170.808C449.318 170.808 447.234 170.261 445.844 169.168C444.455 168.076 443.76 166.287 443.76 163.803V130.569Z" fill="#116EEA"/>
<path d="M546.632 156.203V107.768H561.967V157.395C561.967 159.481 561.52 161.17 560.627 162.462C559.734 163.754 558.294 164.996 556.309 166.188C554.126 167.579 551.098 168.87 547.227 170.063C543.356 171.354 538.89 172 533.828 172C526.284 172 519.684 170.708 514.026 168.125C508.468 165.542 504.101 161.568 500.924 156.203C497.848 150.738 496.309 143.783 496.309 135.338C496.309 126.694 497.848 119.64 500.924 114.176C504.001 108.711 508.22 104.688 513.58 102.104C518.939 99.4218 524.796 98.0805 531.148 98.0805C534.92 98.0805 538.443 98.5772 541.719 99.5708C544.994 100.564 547.575 101.806 549.461 103.297V116.709C547.674 115.02 545.391 113.58 542.612 112.387C539.833 111.096 536.607 110.45 532.935 110.45C529.064 110.45 525.49 111.295 522.215 112.984C519.039 114.573 516.508 117.206 514.622 120.882C512.736 124.558 511.793 129.427 511.793 135.487C511.793 143.833 513.778 149.943 517.748 153.818C521.719 157.693 527.029 159.63 533.679 159.63C536.756 159.63 539.287 159.283 541.272 158.587C543.356 157.892 545.143 157.097 546.632 156.203ZM561.967 111.195H546.632V73.1922C547.327 72.9935 548.319 72.7452 549.61 72.4471C550.9 72.149 552.24 72 553.629 72C556.508 72 558.592 72.5464 559.883 73.6393C561.272 74.6329 561.967 76.4213 561.967 79.0045V111.195Z" fill="#116EEA"/>
<path d="M610.599 159.183C616.752 159.183 621.368 157.842 624.445 155.159C627.522 152.477 629.06 149.099 629.06 145.025C629.06 141.449 627.869 138.518 625.487 136.232C623.105 133.947 619.432 132.06 614.47 130.569L603.154 127.142C598.589 125.751 594.618 124.012 591.244 121.925C587.869 119.839 585.239 117.206 583.353 114.027C581.467 110.847 580.524 107.022 580.524 102.551C580.524 94.7024 583.402 88.5425 589.159 84.0715C595.015 79.5012 602.857 77.2161 612.683 77.2161C618.142 77.2161 623.006 77.8122 627.274 79.0045C631.641 80.0974 635.016 81.5877 637.398 83.4754C639.879 85.3631 641.12 87.4993 641.12 89.8838C641.12 91.4734 640.723 92.9141 639.929 94.2057C639.135 95.3979 638.092 96.3915 636.802 97.1863C634.42 95.2986 631.194 93.6592 627.125 92.2683C623.055 90.8773 618.589 90.1818 613.725 90.1818C608.365 90.1818 604.147 91.3244 601.07 93.6095C597.993 95.7953 596.455 98.776 596.455 102.551C596.455 105.532 597.546 107.966 599.73 109.854C601.914 111.642 605.338 113.232 610.003 114.623L618.787 117.306C627.025 119.69 633.427 123.068 637.993 127.44C642.658 131.712 644.991 137.574 644.991 145.025C644.991 153.073 642.013 159.581 636.058 164.548C630.102 169.516 621.666 172 610.747 172C604.693 172 599.333 171.305 594.668 169.914C590.102 168.622 586.529 166.933 583.948 164.846C581.368 162.661 580.077 160.326 580.077 157.842C580.077 155.855 580.673 154.216 581.864 152.924C583.055 151.533 584.395 150.49 585.884 149.794C588.365 151.98 591.641 154.116 595.71 156.203C599.879 158.19 604.842 159.183 610.599 159.183Z" fill="#116EEA"/>
<path d="M668.545 143.535L667.8 132.358L710.083 126.396C709.786 121.727 708.148 117.852 705.17 114.772C702.193 111.593 697.974 110.003 692.515 110.003C686.957 110.003 682.341 111.99 678.669 115.964C674.996 119.938 673.111 125.602 673.011 132.954L673.309 138.617C674.103 145.671 676.634 150.987 680.902 154.563C685.17 158.041 690.778 159.779 697.726 159.779C701.895 159.779 705.716 159.134 709.19 157.842C712.664 156.55 715.443 155.159 717.528 153.669C718.719 154.365 719.662 155.308 720.356 156.501C721.15 157.693 721.548 158.985 721.548 160.376C721.548 162.561 720.456 164.548 718.272 166.337C716.088 168.125 713.111 169.516 709.339 170.51C705.667 171.503 701.498 172 696.833 172C689.19 172 682.49 170.609 676.733 167.827C670.976 164.946 666.51 160.723 663.334 155.159C660.158 149.496 658.57 142.591 658.57 134.444C658.57 128.582 659.413 123.416 661.101 118.945C662.887 114.375 665.319 110.549 668.396 107.469C671.473 104.389 675.096 102.055 679.264 100.465C683.433 98.8753 687.9 98.0805 692.664 98.0805C698.917 98.0805 704.426 99.4218 709.19 102.104C714.054 104.688 717.825 108.314 720.505 112.984C723.185 117.653 724.525 122.969 724.525 128.93C724.525 131.414 723.93 133.252 722.739 134.444C721.547 135.537 719.86 136.232 717.677 136.531L668.545 143.535Z" fill="#116EEA"/>
<path d="M740.954 130.569H756.14V149.645C756.14 153.222 757.182 155.756 759.266 157.246C761.351 158.736 764.279 159.481 768.051 159.481C769.639 159.481 771.425 159.233 773.41 158.736C775.395 158.239 777.033 157.643 778.324 156.948C779.018 157.643 779.614 158.538 780.11 159.63C780.706 160.624 781.003 161.767 781.003 163.058C781.003 165.641 779.664 167.777 776.984 169.466C774.403 171.056 770.482 171.851 765.222 171.851C757.877 171.851 751.971 170.212 747.505 166.933C743.137 163.654 740.954 158.19 740.954 150.539V130.569ZM749.589 113.878V101.657H779.217C779.614 102.253 779.961 103.098 780.259 104.191C780.656 105.284 780.855 106.426 780.855 107.618C780.855 109.705 780.358 111.295 779.366 112.387C778.472 113.381 777.182 113.878 775.495 113.878H749.589ZM756.14 134.742H740.954V80.9419C741.549 80.7432 742.492 80.4948 743.782 80.1967C745.073 79.8987 746.462 79.7496 747.951 79.7496C750.73 79.7496 752.765 80.2961 754.055 81.389C755.445 82.4819 756.14 84.2702 756.14 86.7541V134.742Z" fill="#116EEA"/>
<path d="M278.646 97.8063C279.44 97.3095 280.582 96.9121 282.071 96.614C283.56 96.2166 285.098 96.0179 286.686 96.0179C289.167 96.0179 291.252 96.4153 292.939 97.2101C294.726 98.005 295.818 99.1475 296.215 100.638C298.498 107.394 300.532 113.653 302.319 119.416C304.106 125.079 305.843 130.593 307.53 135.958C309.217 141.224 310.905 146.738 312.592 152.501H313.187C314.875 143.758 316.513 135.312 318.101 127.165C319.689 118.919 321.178 110.673 322.567 102.426C324.056 94.0805 325.446 85.2876 326.736 76.0477C328.721 75.0541 330.954 74.5574 333.436 74.5574C335.719 74.5574 337.604 75.1038 339.093 76.1967C340.582 77.1903 341.327 78.7799 341.327 80.9657C341.327 82.9528 341.078 85.8838 340.582 89.7586C340.086 93.534 339.391 98.005 338.498 103.171C337.604 108.238 336.562 113.604 335.371 119.267C334.18 124.831 332.939 130.394 331.649 135.958C330.359 141.522 329.019 146.738 327.629 151.607C326.339 156.376 325.098 160.449 323.907 163.827C322.815 164.523 321.326 165.168 319.441 165.765C317.555 166.261 315.52 166.51 313.336 166.51C310.557 166.51 308.175 166.112 306.19 165.317C304.304 164.423 303.063 163.281 302.468 161.89C301.277 158.611 299.788 154.438 298.001 149.371C296.314 144.205 294.527 138.591 292.641 132.531C290.756 126.371 288.919 120.26 287.133 114.2C285.545 120.161 283.808 126.321 281.922 132.68C280.036 139.038 278.2 144.95 276.413 150.414C274.626 155.879 273.038 160.35 271.649 163.827C270.755 164.523 269.416 165.168 267.629 165.765C265.842 166.261 263.808 166.51 261.525 166.51C258.845 166.51 256.463 166.063 254.378 165.168C252.393 164.274 251.103 163.181 250.507 161.89C249.515 159.406 248.324 155.779 246.934 151.01C245.544 146.142 244.056 140.578 242.467 134.319C240.979 127.96 239.49 121.403 238.001 114.647C236.512 107.891 235.123 101.333 233.832 94.9747C232.641 88.616 231.698 82.9528 231.003 77.9851C231.797 77.0909 232.939 76.2961 234.428 75.6006C236.016 74.9051 237.703 74.5574 239.49 74.5574C241.773 74.5574 243.559 75.1038 244.85 76.1967C246.239 77.1903 247.133 78.929 247.53 81.4128C248.919 88.5663 250.16 95.223 251.252 101.383C252.443 107.444 253.584 113.256 254.676 118.82C255.768 124.284 256.86 129.798 257.951 135.362C259.143 140.827 260.383 146.539 261.674 152.501H262.418C263.609 148.129 264.8 144.006 265.991 140.131C267.182 136.157 268.373 132.133 269.564 128.06C270.855 123.986 272.195 119.515 273.584 114.647C275.073 109.778 276.76 104.165 278.646 97.8063Z" fill="#88B7F6"/>
<path d="M423.003 131.04C423.003 138.492 421.564 144.999 418.686 150.563C415.807 156.127 411.738 160.449 406.477 163.529C401.217 166.51 395.013 168 387.867 168C380.72 168 374.517 166.51 369.256 163.529C363.996 160.449 359.926 156.177 357.048 150.712C354.169 145.149 352.73 138.591 352.73 131.04C352.73 123.489 354.169 116.982 357.048 111.517C360.025 105.953 364.145 101.681 369.405 98.7004C374.765 95.6205 380.919 94.0805 387.867 94.0805C394.914 94.0805 401.068 95.6205 406.328 98.7004C411.589 101.681 415.659 105.953 418.537 111.517C421.515 116.982 423.003 123.489 423.003 131.04ZM387.867 106.45C381.911 106.45 377.147 108.636 373.574 113.007C370.1 117.379 368.363 123.39 368.363 131.04C368.363 138.79 370.05 144.85 373.425 149.222C376.899 153.494 381.713 155.63 387.867 155.63C394.021 155.63 398.785 153.445 402.16 149.073C405.634 144.701 407.371 138.691 407.371 131.04C407.371 123.39 405.634 117.379 402.16 113.007C398.686 108.636 393.921 106.45 387.867 106.45Z" fill="#88B7F6"/>
<path d="M455.095 111.07V132.978H439.76V110.772C439.76 108.387 440.256 106.45 441.249 104.96C442.341 103.37 443.929 101.88 446.013 100.489C448.792 98.7004 452.415 97.2101 456.882 96.0179C461.447 94.8256 466.41 94.2295 471.77 94.2295C480.405 94.2295 484.723 96.6637 484.723 101.532C484.723 102.724 484.524 103.817 484.127 104.811C483.83 105.804 483.433 106.698 482.936 107.493C481.944 107.295 480.653 107.096 479.065 106.897C477.576 106.698 476.038 106.599 474.45 106.599C470.38 106.599 466.658 107.046 463.284 107.94C460.008 108.735 457.279 109.778 455.095 111.07ZM439.76 126.569L455.095 127.911V165.615C454.4 165.814 453.408 166.063 452.117 166.361C450.926 166.659 449.586 166.808 448.097 166.808C445.318 166.808 443.234 166.261 441.844 165.168C440.455 164.076 439.76 162.287 439.76 159.803V126.569Z" fill="#88B7F6"/>
<path d="M542.632 152.203V103.768H557.967V153.395C557.967 155.481 557.52 157.17 556.627 158.462C555.734 159.754 554.294 160.996 552.309 162.188C550.126 163.579 547.098 164.87 543.227 166.063C539.356 167.354 534.89 168 529.828 168C522.284 168 515.684 166.708 510.026 164.125C504.468 161.542 500.101 157.568 496.924 152.203C493.848 146.738 492.309 139.783 492.309 131.338C492.309 122.694 493.848 115.64 496.924 110.176C500.001 104.711 504.22 100.688 509.58 98.1043C514.939 95.4218 520.796 94.0805 527.148 94.0805C530.92 94.0805 534.443 94.5772 537.719 95.5708C540.994 96.5643 543.575 97.8063 545.461 99.2966V112.709C543.674 111.02 541.391 109.58 538.612 108.387C535.833 107.096 532.607 106.45 528.935 106.45C525.064 106.45 521.49 107.295 518.215 108.984C515.039 110.573 512.508 113.206 510.622 116.882C508.736 120.558 507.793 125.427 507.793 131.487C507.793 139.833 509.778 145.943 513.748 149.818C517.719 153.693 523.029 155.63 529.679 155.63C532.756 155.63 535.287 155.283 537.272 154.587C539.356 153.892 541.143 153.097 542.632 152.203ZM557.967 107.195H542.632V69.1922C543.327 68.9935 544.319 68.7452 545.61 68.4471C546.9 68.149 548.24 68 549.629 68C552.508 68 554.592 68.5464 555.883 69.6393C557.272 70.6329 557.967 72.4213 557.967 75.0045V107.195Z" fill="#88B7F6"/>
<path d="M606.599 155.183C612.752 155.183 617.368 153.842 620.445 151.159C623.522 148.477 625.06 145.099 625.06 141.025C625.06 137.449 623.869 134.518 621.487 132.232C619.105 129.947 615.432 128.06 610.47 126.569L599.154 123.142C594.589 121.751 590.618 120.012 587.244 117.925C583.869 115.839 581.239 113.206 579.353 110.027C577.467 106.847 576.524 103.022 576.524 98.5514C576.524 90.7024 579.402 84.5425 585.159 80.0715C591.015 75.5012 598.857 73.2161 608.683 73.2161C614.142 73.2161 619.006 73.8122 623.274 75.0045C627.641 76.0974 631.016 77.5877 633.398 79.4754C635.879 81.3631 637.12 83.4993 637.12 85.8838C637.12 87.4734 636.723 88.9141 635.929 90.2057C635.135 91.3979 634.092 92.3915 632.802 93.1863C630.42 91.2986 627.194 89.6592 623.125 88.2683C619.055 86.8773 614.589 86.1818 609.725 86.1818C604.365 86.1818 600.147 87.3244 597.07 89.6095C593.993 91.7953 592.455 94.776 592.455 98.5514C592.455 101.532 593.546 103.966 595.73 105.854C597.914 107.642 601.338 109.232 606.003 110.623L614.787 113.306C623.025 115.69 629.427 119.068 633.993 123.44C638.658 127.712 640.991 133.574 640.991 141.025C640.991 149.073 638.013 155.581 632.058 160.548C626.102 165.516 617.666 168 606.747 168C600.693 168 595.333 167.305 590.668 165.914C586.102 164.622 582.529 162.933 579.948 160.846C577.368 158.661 576.077 156.326 576.077 153.842C576.077 151.855 576.673 150.216 577.864 148.924C579.055 147.533 580.395 146.49 581.884 145.794C584.365 147.98 587.641 150.116 591.71 152.203C595.879 154.19 600.842 155.183 606.599 155.183Z" fill="#88B7F6"/>
<path d="M664.545 139.535L663.8 128.358L706.083 122.396C705.786 117.727 704.148 113.852 701.17 110.772C698.193 107.593 693.974 106.003 688.515 106.003C682.957 106.003 678.341 107.99 674.669 111.964C670.996 115.938 669.111 121.602 669.011 128.954L669.309 134.617C670.103 141.671 672.634 146.987 676.902 150.563C681.17 154.041 686.778 155.779 693.726 155.779C697.895 155.779 701.716 155.134 705.19 153.842C708.664 152.55 711.443 151.159 713.528 149.669C714.719 150.365 715.662 151.308 716.356 152.501C717.15 153.693 717.548 154.985 717.548 156.376C717.548 158.561 716.456 160.548 714.272 162.337C712.088 164.125 709.111 165.516 705.339 166.51C701.667 167.503 697.498 168 692.833 168C685.19 168 678.49 166.609 672.733 163.827C666.976 160.946 662.51 156.723 659.334 151.159C656.158 145.496 654.57 138.591 654.57 130.444C654.57 124.582 655.413 119.416 657.101 114.945C658.887 110.375 661.319 106.549 664.396 103.469C667.473 100.389 671.096 98.0546 675.264 96.465C679.433 94.8753 683.9 94.0805 688.664 94.0805C694.917 94.0805 700.426 95.4218 705.19 98.1043C710.054 100.688 713.825 104.314 716.505 108.984C719.185 113.653 720.525 118.969 720.525 124.93C720.525 127.414 719.93 129.252 718.739 130.444C717.547 131.537 715.86 132.232 713.677 132.531L664.545 139.535Z" fill="#88B7F6"/>
<path d="M736.954 126.569H752.14V145.645C752.14 149.222 753.182 151.756 755.266 153.246C757.351 154.736 760.279 155.481 764.051 155.481C765.639 155.481 767.425 155.233 769.41 154.736C771.395 154.239 773.033 153.643 774.324 152.948C775.018 153.643 775.614 154.538 776.11 155.63C776.706 156.624 777.003 157.767 777.003 159.058C777.003 161.641 775.664 163.777 772.984 165.466C770.403 167.056 766.482 167.851 761.222 167.851C753.877 167.851 747.971 166.212 743.505 162.933C739.137 159.654 736.954 154.19 736.954 146.539V126.569ZM745.589 109.878V97.6572H775.217C775.614 98.2533 775.961 99.0979 776.259 100.191C776.656 101.284 776.855 102.426 776.855 103.618C776.855 105.705 776.358 107.295 775.366 108.387C774.472 109.381 773.182 109.878 771.495 109.878H745.589ZM752.14 130.742H736.954V76.9419C737.549 76.7432 738.492 76.4948 739.782 76.1967C741.073 75.8987 742.462 75.7496 743.951 75.7496C746.73 75.7496 748.765 76.2961 750.055 77.389C751.445 78.4819 752.14 80.2702 752.14 82.7541V130.742Z" fill="#88B7F6"/>
<path d="M180.195 164.2C173.116 178.345 152.913 178.345 145.835 164.2L139.456 151.453L153.947 122.497L153.971 122.45L179.409 71.6166C185.529 59.388 176.629 45 162.945 45L208.767 45C223.046 45 232.333 60.0136 225.947 72.7739L180.195 164.2Z" fill="#116EEA"/>
<path d="M83.4091 183.391C90.4877 197.536 110.691 197.536 117.769 183.391L173.126 72.7742C179.511 60.0139 170.224 45.0003 155.946 45.0003L45.2327 45.0003C30.9539 45.0003 21.6669 60.0139 28.0526 72.7742L83.4091 183.391Z" fill="#88B7F6"/>
</svg>
